<?xml version="1.0" standalone="no"?><!DOCTYPE svg PUBLIC "-//W3C//DTD SVG 1.1//EN" "http://www.w3.org/Graphics/SVG/1.1/DTD/svg11.dtd"><svg t="1500746874531" class="icon" style="" viewBox="0 0 1024 1024" version="1.1" xmlns="http://www.w3.org/2000/svg" p-id="1444" xmlns:xlink="http://www.w3.org/1999/xlink" width="200" height="200"><defs><style type="text/css"></style></defs><path d="M144.343 607.978c3.519 21.115 16.254 40.333 35.858 54.114 17.815 12.523 39.812 19.421 61.937 19.421h335.979c22.125 0 44.121-6.897 61.937-19.421 19.605-13.781 32.34-33 35.858-54.114l57.848-347.084c4.983-29.895-2.873-59.687-21.553-81.738-18.397-21.717-45.974-34.172-75.658-34.172H183.707c-29.685 0-57.26 12.455-75.657 34.172-18.68 22.051-26.537 51.843-21.554 81.738l57.847 347.084z m12.539-387.456c6.304-7.442 15.831-11.54 26.824-11.54h452.841c10.994 0 20.521 4.098 26.824 11.54 6.592 7.781 9.169 18.381 7.258 29.849l-57.848 347.085c-1.363 8.178-15.545 20.057-34.666 20.057H242.138c-19.121 0-33.303-11.879-34.666-20.057l-57.848-347.084c-1.911-11.468 0.667-22.069 7.258-29.85z" p-id="1445"></path><path d="M927.777 66.228c-36.277 0-66.005 16.606-85.967 48.023-13.664 21.506-23.133 50.147-29.797 90.136l-81.951 491.704c-3.118 18.708-29.455 39.554-62.262 39.554H191.83c-32.807 0-59.144-20.846-62.262-39.554-2.905-17.433-19.396-29.209-36.825-26.304-17.433 2.905-29.209 19.393-26.304 36.825 8.695 52.168 63.773 93.032 125.391 93.032H667.8c61.618 0 116.696-40.864 125.391-93.032l81.951-491.705c12.403-74.421 32.627-84.68 52.635-84.68 17.673 0 32-14.327 32-32 0-17.673-14.327-31.999-32-31.999z" p-id="1446"></path><path d="M231.136 417.121h47.693v111.447c0 17.673 14.327 32 32 32s32-14.327 32-32V417.121h111.323v111.447c0 17.673 14.327 32 32 32s32-14.327 32-32V417.121h47.692c17.673 0 32-14.327 32-32s-14.327-32-32-32h-47.692v-79.569c0-17.673-14.327-32-32-32s-32 14.327-32 32v79.569H342.829v-79.569c0-17.673-14.327-32-32-32s-32 14.327-32 32v79.569h-47.693c-17.673 0-32 14.327-32 32s14.327 32 32 32z" p-id="1447"></path><path d="M213.855411 925.838134a61.347 61.347 0 1 0 106.256121-61.347 61.347 61.347 0 1 0-106.256121 61.347Z" p-id="1448"></path><path d="M520.584241 925.837644a61.347 61.347 0 1 0 106.256121-61.347 61.347 61.347 0 1 0-106.256121 61.347Z" p-id="1449"></path></svg>